<svg height="338.309215" viewBox="0 0 290 331.92" width="295.587574" xmlns="http://www.w3.org/2000/svg"><rect height="100%" width="100%"/><path d="m102.36 24.66v21.68l19.12-10.84z" fill="#27aae1"/><path d="m122.38 58.67v-21.67l-19.12 10.84z" fill="#27aae1"/><path d="m100.62 46.34v-21.68l-19.11 10.84z" fill="#27aae1"/><path d="m145.87 24.66v21.68l19.12-10.84z" fill="#27aae1"/><path d="m165.88 58.67v-21.67l-19.12 10.84z" fill="#27aae1"/><path d="m189.38 24.66v21.68l19.11-10.84z" fill="#27aae1"/><path d="m187.63 46.34v-21.68l-19.11 10.84z" fill="#27aae1"/><path d="m124.12 37v21.67l19.12-10.83z" fill="#27aae1"/><path d="m145.87 49.33v21.68l19.12-10.84z" fill="#27aae1"/><path d="m144.13 71.01v-21.68l-19.12 10.84z" fill="#27aae1"/><path d="m167.62 37v21.67l19.12-10.83z" fill="#27aae1"/><path d="m122.38 34.01v-21.68l-19.12 10.84z" fill="#27aae1"/><path d="m145.87 0v21.68l19.12-10.84z" fill="#27aae1"/><path d="m144.13 0-19.12 10.84 19.12 10.84z" fill="#27aae1"/><path d="m167.62 12.33v21.68l19.12-10.84z" fill="#27aae1"/><path d="m144.13 46.34v-21.68l-19.12 10.84z" fill="#27aae1"/><path d="m124.12 12.33v21.68l19.12-10.84z" fill="#27aae1"/><path d="m165.88 34.01v-21.68l-19.12 10.84z" fill="#27aae1"/><path d="m80.61 37v21.67l19.12-10.83z" fill="#1b75bc"/><path d="m102.36 49.33v21.68l19.12-10.84z" fill="#1b75bc"/><path d="m100.62 71.01v-21.68l-19.11 10.84z" fill="#1b75bc"/><path d="m124.12 61.66v21.68l19.12-10.84z" fill="#1b75bc"/><path d="m144.13 95.67v-21.68l-19.12 10.84z" fill="#1b75bc"/><path d="m122.38 83.34v-21.68l-19.12 10.84z" fill="#1b75bc"/><path d="m102.36 73.99v21.68l19.12-10.84z" fill="#1b75bc"/><path d="m124.12 86.33v21.67l19.12-10.83z" fill="#1b75bc"/><path d="m122.38 108v-21.67l-19.12 10.83z" fill="#1b75bc"/><path d="m102.36 98.66v21.67l19.12-10.83z" fill="#1b75bc"/><path d="m80.61 61.66v21.68l19.12-10.84z" fill="#1b75bc"/><path d="m100.62 95.67v-21.68l-19.11 10.84z" fill="#1b75bc"/><path d="m80.61 86.33v21.67l19.12-10.83z" fill="#1b75bc"/><path d="m100.62 120.34v-21.68l-19.11 10.84z" fill="#1b75bc"/><path d="m144.13 120.33v-21.67l-19.12 10.84z" fill="#1b75bc"/><path d="m124.12 110.99v21.68l19.12-10.84z" fill="#1b75bc"/><path d="m144.13 145v-21.68l-19.12 10.84z" fill="#1b75bc"/><path d="m122.38 132.67v-21.68l-19.12 10.84z" fill="#1b75bc"/><path d="m187.63 71.01v-21.68l-19.11 10.84z" fill="#72c6ef"/><path d="m165.88 83.34v-21.68l-19.12 10.84z" fill="#72c6ef"/><path d="m145.87 73.99v21.68l19.12-10.84z" fill="#72c6ef"/><path d="m165.88 108v-21.67l-19.12 10.83z" fill="#72c6ef"/><path d="m145.87 98.66v21.67l19.12-10.83z" fill="#72c6ef"/><path d="m167.62 86.33v21.67l19.12-10.83z" fill="#72c6ef"/><path d="m167.62 61.66v21.68l19.12-10.84z" fill="#72c6ef"/><path d="m209.39 58.67v-21.67l-19.12 10.84z" fill="#72c6ef"/><path d="m189.38 49.33v21.68l19.11-10.84z" fill="#72c6ef"/><path d="m145.87 123.32v21.68l19.12-10.84z" fill="#72c6ef"/><path d="m165.88 132.67v-21.68l-19.12 10.84z" fill="#72c6ef"/><path d="m167.62 110.99v21.68l19.12-10.84z" fill="#72c6ef"/><path d="m189.38 98.66v21.68l19.11-10.84z" fill="#72c6ef"/><path d="m189.38 73.99v21.68l19.11-10.84z" fill="#72c6ef"/><path d="m209.39 108v-21.67l-19.12 10.83z" fill="#72c6ef"/><path d="m187.63 120.34v-21.68l-19.11 10.84z" fill="#72c6ef"/><path d="m187.63 95.67v-21.68l-19.11 10.84z" fill="#72c6ef"/><path d="m209.39 83.34v-21.68l-19.12 10.84z" fill="#72c6ef"/><path d="m258.25 178.15h-50.5v18.59h31.91v89.83h18.59v-89.83h31.75v-18.59zm-59.46 59.94a39.79 39.79 0 0 0 4.49-9.83 38.51 38.51 0 0 0 1.62-11.26 37.19 37.19 0 0 0 -3.09-15.1 39.68 39.68 0 0 0 -20.68-20.68 37.06 37.06 0 0 0 -15.1-3.1h-40.58v108.45h18.55v-89.83h22a19.66 19.66 0 0 1 14.4 6 20.16 20.16 0 0 1 4.34 22 21.69 21.69 0 0 1 -4.34 6.66 19.66 19.66 0 0 1 -14.4 6h-8l-7.59 18.59h12.7l19.67 30.51h22.12l-22.15-34.38a37.68 37.68 0 0 0 9.07-6 38.7 38.7 0 0 0 7-8.13m-88.74 11.16a56.56 56.56 0 0 1 -7.2 14.87l9.76 9.91v26.33l-56.41-56.26v-26.35l33.14 33a37.3 37.3 0 0 0 4.63-18.44 37.7 37.7 0 0 0 -2.79-14.41 37.05 37.05 0 0 0 -8.21-12.23 37.92 37.92 0 0 0 -12.23-8.29 37.22 37.22 0 0 0 -14.56-2.87 36.77 36.77 0 0 0 -14.41 2.87 38.07 38.07 0 0 0 -12.24 8.29 37.05 37.05 0 0 0 -8.21 12.23 37.88 37.88 0 0 0 -2.78 14.41 38.39 38.39 0 0 0 2.78 14.48 37.94 37.94 0 0 0 20.45 20.52 37.63 37.63 0 0 0 14.43 2.79 34 34 0 0 0 3.94-.23c1.3-.16 2.56-.34 3.8-.54l14.71 14.71a60.55 60.55 0 0 1 -10.76 3.41 56.27 56.27 0 0 1 -33.61-3.18 55.77 55.77 0 0 1 -17.89-12.08 57.5 57.5 0 0 1 -12-18 56.66 56.66 0 0 1 0-43.83 57.5 57.5 0 0 1 12-18 55.77 55.77 0 0 1 17.89-12.08 55.07 55.07 0 0 1 21.92-4.41 55 55 0 0 1 22 4.41 56.5 56.5 0 0 1 30 30 55.11 55.11 0 0 1 4.42 21.92 56.13 56.13 0 0 1 -2.56 17" fill="#fff"/><g fill="#27aae1"><path d="m48.25 325.93a5 5 0 0 1 -.86 2.8l.86.88v2.31l-5-5v-2.31l2.91 2.9a3.3 3.3 0 0 0 .41-1.62 3.21 3.21 0 0 0 -1-2.35 3.34 3.34 0 0 0 -1.07-.73 3.25 3.25 0 0 0 -1.28-.25 3.2 3.2 0 0 0 -1.27.25 3.38 3.38 0 0 0 -1.08.73 3.31 3.31 0 0 0 -1 2.35 3.23 3.23 0 0 0 .25 1.27 3 3 0 0 0 .72 1.08 3.21 3.21 0 0 0 2.35 1 1.94 1.94 0 0 0 .34 0l.34-.05 1.29 1.3a4.79 4.79 0 0 1 -.95.3 4.9 4.9 0 0 1 -1 .11 4.79 4.79 0 0 1 -1.93-.39 4.93 4.93 0 0 1 -1.58-1.06 5 5 0 0 1 -1.05-1.58 5 5 0 0 1 1.05-5.44 5 5 0 0 1 1.58-1.07 5.09 5.09 0 0 1 3.86 0 5.08 5.08 0 0 1 2.72 2.64 4.82 4.82 0 0 1 .39 1.93z"/><path d="m57.27 321.17v5.72a3.85 3.85 0 0 1 -.32 1.56 3.9 3.9 0 0 1 -.86 1.28 4.13 4.13 0 0 1 -1.27.86 3.91 3.91 0 0 1 -1.56.31 3.85 3.85 0 0 1 -1.56-.31 4.18 4.18 0 0 1 -1.28-.86 4 4 0 0 1 -1.17-2.84v-5.72h1.64v5.72a2.53 2.53 0 0 0 .17.91 2.33 2.33 0 0 0 .52.77 2.44 2.44 0 0 0 .77.52 2.34 2.34 0 0 0 .91.18 2.29 2.29 0 0 0 1.67-.7 2.34 2.34 0 0 0 .7-1.68v-5.72z"/><path d="m65 325.61a2.93 2.93 0 0 1 .87 1 2.68 2.68 0 0 1 .33 1.31 2.82 2.82 0 0 1 -.2 1.08 2.91 2.91 0 0 1 -.6.89 2.71 2.71 0 0 1 -.89.59 2.56 2.56 0 0 1 -1.07.22h-2.7l.66-1.64h2.06a1.12 1.12 0 0 0 .81-.33 1.1 1.1 0 0 0 .33-.81 1.1 1.1 0 0 0 -.33-.81 1.12 1.12 0 0 0 -.81-.33h-3.34v3.95h-1.64v-9.54h4.31a2.64 2.64 0 0 1 1.08.22 2.59 2.59 0 0 1 .89.6 2.78 2.78 0 0 1 .59.88 2.64 2.64 0 0 1 .22 1.08 2.84 2.84 0 0 1 -.14.88 3.14 3.14 0 0 1 -.43.76zm-1.07-1.61a1.13 1.13 0 0 0 -1.14-1.14h-2.67v2.31h2.67a1.13 1.13 0 0 0 1.14-1.17z"/><path d="m68.84 322.81v2.31h3.56l.41 1.64h-4v2.31h4.79v1.64h-6.39v-9.54h6.42v1.64z"/><path d="m84.23 324.59a3.32 3.32 0 0 1 -.54 1.85 3.27 3.27 0 0 1 -1.41 1.24l2 3h-2l-1.73-2.68h-1.12l.67-1.64h.71a1.76 1.76 0 0 0 1.27-.53 1.93 1.93 0 0 0 .38-.59 1.72 1.72 0 0 0 0-1.36 1.79 1.79 0 0 0 -1.65-1.1h-1.94v7.9h-1.63v-9.54h3.57a3.29 3.29 0 0 1 1.33.27 3.56 3.56 0 0 1 1.86 1.85 3.33 3.33 0 0 1 .23 1.33z"/><path d="m86.87 322.81v2.31h3.55l.41 1.64h-4v2.31h4.78v1.64h-6.38v-9.54h6.42v1.64z"/><path d="m99.06 328a3.3 3.3 0 0 1 -.22 1.21 2.54 2.54 0 0 1 -.62.91 2.66 2.66 0 0 1 -1 .58 3.7 3.7 0 0 1 -1.28.21 5.3 5.3 0 0 1 -2-.36 5.55 5.55 0 0 1 -1.46-.83l1.13-1.13a3.3 3.3 0 0 0 1 .63 2.35 2.35 0 0 0 .64.17 3.52 3.52 0 0 0 .49.05 2.27 2.27 0 0 0 .65-.09 2 2 0 0 0 .51-.24 1.07 1.07 0 0 0 .46-.9.85.85 0 0 0 -.25-.61 1.3 1.3 0 0 0 -.49-.36 2.91 2.91 0 0 0 -.51-.22l-.49-.15h-.13a.25.25 0 0 1 -.09 0 .13.13 0 0 1 -.08 0c-.2-.06-.47-.15-.83-.29a5 5 0 0 1 -1.07-.56 2.4 2.4 0 0 1 -1.24-2 2.94 2.94 0 0 1 .28-1.36 2.61 2.61 0 0 1 .73-.9 2.83 2.83 0 0 1 1-.49 4.13 4.13 0 0 1 1.08-.15 4.9 4.9 0 0 1 1.65.23 6.3 6.3 0 0 1 1.07.46 2.5 2.5 0 0 1 .34.24l.26.21-1.16 1.17a3.32 3.32 0 0 0 -.75-.56 2.77 2.77 0 0 0 -1.2-.27 2.13 2.13 0 0 0 -.55.07 1.54 1.54 0 0 0 -.47.18 1.08 1.08 0 0 0 -.6 1 .88.88 0 0 0 .24.63 1.62 1.62 0 0 0 .49.37 3.71 3.71 0 0 0 .55.22l.53.15h.16l.26.08.45.16.57.26a4.76 4.76 0 0 1 .6.36 2.46 2.46 0 0 1 1.35 1.92z"/><path d="m101.56 322.81v2.31h3.56l.41 1.64h-4v2.31h4.79v1.64h-6.39v-9.54h6.42v1.64z"/><path d="m117.25 330.71h-1.8l-.73-1.64-.74-1.63-1.93-4.28-1.94 4.28h2.48l.74 1.63h-4l-.73 1.64h-1.8l4.31-9.54h1.79z"/><path d="m124.77 324.59a3.46 3.46 0 0 1 -1.15 2.57 3.43 3.43 0 0 1 -.8.52l2 3h-2l-1.73-2.68h-1.09l.67-1.64h.71a1.72 1.72 0 0 0 1.26-.53 2 2 0 0 0 .39-.59 1.74 1.74 0 0 0 -.39-1.93 1.69 1.69 0 0 0 -1.26-.53h-1.94v7.9h-1.63v-9.54h3.57a3.25 3.25 0 0 1 1.32.27 3.45 3.45 0 0 1 1.09.74 3.49 3.49 0 0 1 .73 1.08 3.17 3.17 0 0 1 .25 1.36z"/><path d="m133.77 329.43a5.07 5.07 0 0 1 -1.58 1.07 4.84 4.84 0 0 1 -1.94.39 4.78 4.78 0 0 1 -1.92-.39 5 5 0 0 1 -1.59-1.06 5 5 0 0 1 -1.06-1.58 5 5 0 0 1 0-3.86 4.93 4.93 0 0 1 1.06-1.58 5 5 0 0 1 1.59-1.07 4.77 4.77 0 0 1 1.92-.38 4.83 4.83 0 0 1 1.94.38 5.07 5.07 0 0 1 1.58 1.07l-1.16 1.16a3.34 3.34 0 0 0 -1.07-.73 3.26 3.26 0 0 0 -1.29-.25 3.18 3.18 0 0 0 -1.26.25 3.43 3.43 0 0 0 -1.81 1.81 3.2 3.2 0 0 0 -.25 1.27 3.23 3.23 0 0 0 .25 1.27 3.18 3.18 0 0 0 .73 1.08 3.21 3.21 0 0 0 2.34 1 3.44 3.44 0 0 0 1.29-.24 3.34 3.34 0 0 0 1.07-.73z"/><path d="m141.61 321.17v9.54h-1.61v-3.95h-4v3.95h-1.63v-9.54h1.63v3.95h4v-3.95z"/><path d="m152.09 330.64a7 7 0 0 0 -.78-1.17 3.16 3.16 0 0 1 -.37.45 2.88 2.88 0 0 1 -1 .67 3.1 3.1 0 0 1 -3.39-.67 2.86 2.86 0 0 1 -.68-1 3.05 3.05 0 0 1 -.23-1.2 2.41 2.41 0 0 1 .73-1.77l.28-.23.3-.21a5.17 5.17 0 0 1 -.62-.9 2.26 2.26 0 0 1 -.24-1 2.53 2.53 0 0 1 .21-1 2.88 2.88 0 0 1 .57-.85 2.65 2.65 0 0 1 .85-.57 2.53 2.53 0 0 1 1-.21 2.6 2.6 0 0 1 1 .21 2.65 2.65 0 0 1 .85.57 3.06 3.06 0 0 1 .56.85 2.53 2.53 0 0 1 .21 1h-1.63a1 1 0 0 0 -.3-.72 1 1 0 0 0 -.72-.3 1 1 0 0 0 -1 1 .78.78 0 0 0 .11.37 2 2 0 0 0 .27.39 4.4 4.4 0 0 0 .37.38l.41.37.42.36c.15.11.3.24.47.36l.69.58c.05-.1.09-.2.13-.29a1.28 1.28 0 0 1 .16-.27 3.31 3.31 0 0 1 1.87-1.38l.5 1.57a1.62 1.62 0 0 0 -1.25 1.63 11.47 11.47 0 0 1 1 1.11 8.77 8.77 0 0 1 .73 1.14zm-3.35-1.44a1.43 1.43 0 0 0 .85-.27 1.47 1.47 0 0 0 .54-.69c-.24-.21-.47-.41-.71-.6l-.68-.55-.27-.22a1.64 1.64 0 0 1 -.25-.21 2.3 2.3 0 0 0 -.78.54.84.84 0 0 0 -.18.51 1.4 1.4 0 0 0 .12.58 1.67 1.67 0 0 0 .31.47 1.4 1.4 0 0 0 .47.32 1.37 1.37 0 0 0 .58.12z"/><path d="m164.26 322.81h-2.79v7.9h-1.64v-7.9h-2.83v-1.64h7.24z"/><path d="m166.44 322.81v2.31h3.56l.41 1.64h-4v2.31h4.79v1.64h-6.42v-9.54h6.42v1.64z"/><path d="m180.13 329.43a5.24 5.24 0 0 1 -1.59 1.07 5 5 0 0 1 -3.86 0 4.92 4.92 0 0 1 -2.64-2.64 5 5 0 0 1 0-3.86 4.93 4.93 0 0 1 1.06-1.58 5.07 5.07 0 0 1 1.58-1.07 5.09 5.09 0 0 1 3.86 0 5.24 5.24 0 0 1 1.59 1.07l-1.13 1.16a3.38 3.38 0 0 0 -1.08-.73 3.25 3.25 0 0 0 -1.28-.25 3.2 3.2 0 0 0 -1.27.25 3.37 3.37 0 0 0 -1.8 1.81 3.21 3.21 0 0 0 -.26 1.27 3.24 3.24 0 0 0 .26 1.27 3.15 3.15 0 0 0 .72 1.08 3.21 3.21 0 0 0 2.35 1 3.43 3.43 0 0 0 1.28-.24 3.38 3.38 0 0 0 1.08-.73z"/><path d="m188 321.17v9.54h-1.63v-3.95h-4v3.95h-1.64v-9.54h1.64v3.95h4v-3.95z"/><path d="m196.49 321.16v9.54h-1.77l-3.83-6.53v6.53h-1.64v-9.54h1.75l3.83 6.52v-6.52z"/><path d="m202.36 321a4.82 4.82 0 0 1 1.93.38 5.07 5.07 0 0 1 1.58 1.07 4.93 4.93 0 0 1 1.06 1.58 5 5 0 0 1 0 3.86 4.92 4.92 0 0 1 -2.64 2.64 5 5 0 0 1 -3.86 0 4.92 4.92 0 0 1 -2.64-2.64 5 5 0 0 1 0-3.86 4.93 4.93 0 0 1 1.06-1.58 5.07 5.07 0 0 1 1.58-1.07 4.85 4.85 0 0 1 1.93-.38zm0 1.63a3.22 3.22 0 0 0 -2.34 1 3.38 3.38 0 0 0 -.73 1.08 3.2 3.2 0 0 0 -.25 1.27 3.23 3.23 0 0 0 .25 1.27 3.18 3.18 0 0 0 .73 1.08 3.24 3.24 0 0 0 1.07.73 3.41 3.41 0 0 0 1.27.24 3.46 3.46 0 0 0 1.28-.24 3.38 3.38 0 0 0 1.08-.73 3 3 0 0 0 .72-1.08 3.42 3.42 0 0 0 .25-1.27 3.38 3.38 0 0 0 -.25-1.27 3.2 3.2 0 0 0 -.72-1.08 3.38 3.38 0 0 0 -1.08-.73 3.28 3.28 0 0 0 -1.28-.3z"/><path d="m213.61 329.07v1.64h-5.39v-9.53h1.64v7.89z"/><path d="m218.55 321a4.85 4.85 0 0 1 1.93.38 5.07 5.07 0 0 1 1.58 1.07 4.93 4.93 0 0 1 1.06 1.58 5 5 0 0 1 0 3.86 4.92 4.92 0 0 1 -2.64 2.64 5 5 0 0 1 -3.86 0 4.92 4.92 0 0 1 -2.64-2.64 5 5 0 0 1 0-3.86 4.93 4.93 0 0 1 1.06-1.58 5.07 5.07 0 0 1 1.58-1.07 4.85 4.85 0 0 1 1.93-.38zm0 1.63a3.2 3.2 0 0 0 -1.27.25 3.31 3.31 0 0 0 -1.8 4.35 3 3 0 0 0 .73 1.08 3.24 3.24 0 0 0 1.07.73 3.48 3.48 0 0 0 2.54 0 3.32 3.32 0 0 0 1.09-.73 3 3 0 0 0 .72-1.08 3.42 3.42 0 0 0 .25-1.27 3.38 3.38 0 0 0 -.25-1.27 3.2 3.2 0 0 0 -.72-1.08 3.32 3.32 0 0 0 -1.09-.73 3.2 3.2 0 0 0 -1.27-.28z"/><path d="m234 325.52a2.75 2.75 0 0 1 0 .41 4.86 4.86 0 0 1 -.39 1.93 4.92 4.92 0 0 1 -2.61 2.64 5 5 0 0 1 -3.86 0 4.92 4.92 0 0 1 -2.64-2.64 5 5 0 0 1 0-3.86 4.93 4.93 0 0 1 1.06-1.58 5.07 5.07 0 0 1 1.58-1.07 4.89 4.89 0 0 1 5.43 1.07l-1.14 1.16a3.38 3.38 0 0 0 -1.08-.73 3.28 3.28 0 0 0 -1.28-.25 3.22 3.22 0 0 0 -2.34 1 3.38 3.38 0 0 0 -.73 1.08 3.2 3.2 0 0 0 -.25 1.27 3.23 3.23 0 0 0 .25 1.27 3.18 3.18 0 0 0 .73 1.08 3.24 3.24 0 0 0 1.07.73 3.41 3.41 0 0 0 1.27.24 3.46 3.46 0 0 0 1.28-.24 3.38 3.38 0 0 0 1.08-.73 3.34 3.34 0 0 0 .87-1.54h-4.42l.41-1.63h5.67c-.03.12.04.25.04.39z"/><path d="m236.51 330.71h-1.63v-9.53h1.63z"/><path d="m239.47 322.81v2.31h3.53l.41 1.64h-4v2.31h4.79v1.64h-6.42v-9.54h6.42v1.64z"/><path d="m251.66 328a3.11 3.11 0 0 1 -.22 1.21 2.42 2.42 0 0 1 -.62.91 2.62 2.62 0 0 1 -1 .58 3.7 3.7 0 0 1 -1.28.21 5.31 5.31 0 0 1 -2-.36 5.72 5.72 0 0 1 -1.46-.83l1.13-1.13a3.43 3.43 0 0 0 1 .63 2.44 2.44 0 0 0 .64.17 3.67 3.67 0 0 0 .49.05 2.17 2.17 0 0 0 .65-.09 1.72 1.72 0 0 0 .51-.24 1.08 1.08 0 0 0 .47-.9.9.9 0 0 0 -.25-.61 1.39 1.39 0 0 0 -.49-.36 3 3 0 0 0 -.52-.22l-.49-.15a.3.3 0 0 0 -.12 0h-.1-.08c-.19-.06-.46-.15-.82-.29a4.78 4.78 0 0 1 -1.07-.56 2.4 2.4 0 0 1 -1.24-2 2.94 2.94 0 0 1 .28-1.36 2.5 2.5 0 0 1 .73-.9 2.75 2.75 0 0 1 1-.49 4.07 4.07 0 0 1 1.08-.15 5 5 0 0 1 1.65.23 6.15 6.15 0 0 1 1.06.46 2.65 2.65 0 0 1 .35.24l.25.21-1.16 1.17a2.93 2.93 0 0 0 -.75-.56 2.77 2.77 0 0 0 -1.2-.27 2 2 0 0 0 -.54.07 1.71 1.71 0 0 0 -.48.18 1.08 1.08 0 0 0 -.6 1 .85.85 0 0 0 .25.63 1.62 1.62 0 0 0 .49.37 3.21 3.21 0 0 0 .54.22l.54.15h.16l.26.08.45.16.56.26a4.24 4.24 0 0 1 .61.36 2.46 2.46 0 0 1 1.34 1.92z"/></g></svg>